<?xml version="1.0" encoding="utf-8"?>
<!-- Generator: Adobe Illustrator 15.1.0, SVG Export Plug-In . SVG Version: 6.00 Build 0)  -->
<!DOCTYPE svg PUBLIC "-//W3C//DTD SVG 1.1//EN" "http://www.w3.org/Graphics/SVG/1.1/DTD/svg11.dtd">
<svg version="1.1" id="Layer_1" xmlns="http://www.w3.org/2000/svg" xmlns:xlink="http://www.w3.org/1999/xlink" x="0px" y="0px"
	 width="250px" height="42px" viewBox="0 0.05 250 42" enable-background="new 0 0.05 250 42" xml:space="preserve">
<g>
	<rect y="0.15" fill="#FFFFFF" width="42" height="42"/>
	<polygon fill="#FF0600" points="0,42.05 10.5,42.05 10.5,10.55 31.5,10.55 31.5,31.55 21,31.55 10.5,42.05 42,42.05 42,0.05 
		0,0.05 	"/>
	<path fill="#222222" d="M59.1,24.95h-2.2v9.6h-5.3V8.05h7.5c5.7,0,7.5,3.3,7.5,8.5C66.6,21.65,64.9,24.95,59.1,24.95z M59,12.75h-2
		v7.4h2c2.2,0,2.3-2,2.3-3.7C61.3,14.85,61.2,12.75,59,12.75z"/>
	<path fill="#222222" d="M80.1,34.55l-3.2-10.3h-1.8v10.3h-5.3V8.05h7.6c5.8,0,7.4,3,7.4,8.1c0,2.8-0.4,5.4-3,7l3.9,11.5h-5.6V34.55
		z M77.3,12.75h-2.2v6.7h2.2c2,0,2.1-1.8,2.1-3.4C79.4,14.55,79.3,12.75,77.3,12.75z"/>
	<path fill="#222222" d="M101.2,32.149c-1.2,1.5-2.9,2.7-5.8,2.7s-4.6-1.2-5.8-2.7c-1.9-2.3-2-5.8-2-10.899c0-5.1,0.1-8.6,2-10.9
		c1.2-1.5,2.9-2.7,5.8-2.7s4.6,1.2,5.8,2.7c1.9,2.3,2,5.8,2,10.9C103.2,26.35,103.1,29.85,101.2,32.149z M97.2,13.55
		c-0.3-0.6-0.8-1-1.8-1s-1.5,0.4-1.8,1c-0.6,1.2-0.7,4.5-0.7,7.7c0,3.2,0.1,6.5,0.7,7.8c0.3,0.6,0.8,1,1.8,1s1.5-0.4,1.8-1
		c0.6-1.2,0.7-4.5,0.7-7.8C97.9,18.05,97.8,14.75,97.2,13.55z"/>
	<path fill="#222222" d="M106.5,34.55V8.05h5.3v21.8h6.9v4.8h-12.2V34.55z"/>
	<path fill="#222222" d="M133.7,32.149c-1.2,1.5-2.9,2.7-5.8,2.7c-2.9,0-4.601-1.2-5.8-2.7c-1.9-2.3-2-5.8-2-10.899
		c0-5.1,0.1-8.6,2-10.9c1.2-1.5,2.9-2.7,5.8-2.7c2.899,0,4.6,1.2,5.8,2.7c1.899,2.3,2,5.8,2,10.9
		C135.7,26.35,135.6,29.85,133.7,32.149z M129.7,13.55c-0.3-0.6-0.8-1-1.8-1s-1.5,0.4-1.801,1c-0.6,1.2-0.7,4.5-0.7,7.7
		c0,3.2,0.1,6.5,0.7,7.8c0.301,0.6,0.801,1,1.801,1s1.5-0.4,1.8-1c0.6-1.2,0.7-4.5,0.7-7.8C130.4,18.05,130.3,14.75,129.7,13.55z"/>
	<path fill="#222222" d="M151.3,32.95c-1.3,1.3-2.899,1.899-5.1,1.899c-2.9,0-4.601-1.2-5.8-2.7c-1.9-2.3-2-5.8-2-10.899
		c0-5.1,0.1-8.6,2-10.9c1.199-1.5,2.899-2.7,5.8-2.7c2.2,0,3.8,0.6,5.1,1.9c1.4,1.3,2.3,3.4,2.4,5.9h-5.3c0-0.7-0.101-1.5-0.4-2
		c-0.3-0.6-0.8-1-1.8-1s-1.5,0.4-1.8,1c-0.601,1.2-0.7,4.5-0.7,7.7c0,3.2,0.1,6.5,0.7,7.8c0.3,0.6,0.8,1,1.8,1s1.5-0.4,1.8-1
		c0.3-0.601,0.4-1.301,0.4-2.101h5.3C153.6,29.55,152.7,31.649,151.3,32.95z"/>
	<path fill="#222222" d="M167.8,34.55l-0.899-4.1H160.8l-0.899,4.1h-5.5l6.899-26.5h5.2l6.8,26.5H167.8z M163.9,15.85l-2,9.8h4.1
		L163.9,15.85z"/>
	<path fill="#222222" d="M182.2,12.75v21.8h-5.3v-21.8h-4.5v-4.7H186.6v4.8H182.2V12.75z"/>
	<path fill="#222222" d="M189.5,34.55V8.05h5.3v26.5H189.5z"/>
	<path fill="#222222" d="M211.7,32.149c-1.2,1.5-2.9,2.7-5.8,2.7c-2.9,0-4.601-1.2-5.801-2.7c-1.899-2.3-2-5.8-2-10.899
		c0-5.1,0.101-8.6,2-10.9c1.2-1.5,2.9-2.7,5.801-2.7c2.899,0,4.6,1.2,5.8,2.7c1.899,2.3,2,5.8,2,10.9
		C213.7,26.35,213.5,29.85,211.7,32.149z M207.6,13.55c-0.3-0.6-0.8-1-1.8-1s-1.5,0.4-1.8,1c-0.6,1.2-0.7,4.5-0.7,7.7
		c0,3.2,0.101,6.5,0.7,7.8c0.3,0.6,0.8,1,1.8,1s1.5-0.4,1.8-1c0.601-1.2,0.7-4.5,0.7-7.8C208.3,18.05,208.3,14.75,207.6,13.55z"/>
	<path fill="#222222" d="M227.9,34.55l-5.601-13v13H217V8.05h4.6l5.5,13v-13h5.301v26.5H227.9z"/>
</g>
</svg>
